<svg width="32" height="32" viewBox="0 0 32 32" fill="none" xmlns="http://www.w3.org/2000/svg">
<path d="M8.8896 10.1825C8.7471 11.7025 8.6471 14.3925 9.5446 15.5375C9.5446 15.5375 9.1221 12.5825 12.9096 8.875C14.4346 7.3825 14.7871 5.3525 14.2546 3.83C13.9521 2.9675 13.3996 2.255 12.9196 1.7575C12.6396 1.465 12.8546 0.9825 13.2621 1C15.7271 1.11 19.7221 1.795 21.4196 6.055C22.1646 7.925 22.2196 9.8575 21.8646 11.8225C21.6396 13.0775 20.8396 15.8675 22.6646 16.21C23.9671 16.455 24.5971 15.42 24.8796 14.675C24.9971 14.365 25.4046 14.2875 25.6246 14.535C27.8246 17.0375 28.0121 19.985 27.5571 22.5225C26.6771 27.4275 21.7096 30.9975 16.7746 30.9975C10.6096 30.9975 5.7021 27.47 4.4296 21.085C3.9171 18.5075 4.1771 13.4075 8.1521 9.8075C8.4471 9.5375 8.9296 9.7775 8.8896 10.1825Z" fill="url(#paint0_radial_220_93)"/>
<path d="M19.0277 19.355C16.7552 16.43 17.7727 13.0925 18.3302 11.7625C18.4052 11.5875 18.2052 11.4225 18.0477 11.53C17.0702 12.195 15.0677 13.76 14.1352 15.9625C12.8727 18.94 12.9627 20.3975 13.7102 22.1775C14.1602 23.25 13.6377 23.4775 13.3752 23.5175C13.1202 23.5575 12.8852 23.3875 12.6977 23.21C12.1583 22.6921 11.7739 22.0342 11.5877 21.31C11.5477 21.155 11.3452 21.1125 11.2527 21.24C10.5527 22.2075 10.1902 23.76 10.1727 24.8575C10.1177 28.25 12.9202 31 16.3102 31C20.5827 31 23.6952 26.275 21.2402 22.325C20.5277 21.175 19.8577 20.4225 19.0277 19.355Z" fill="url(#paint1_radial_220_93)"/>
<defs>
<radialGradient id="paint0_radial_220_93" cx="0" cy="0" r="1" gradientUnits="userSpaceOnUse" gradientTransform="translate(15.5535 31.0752) rotate(-179.751) scale(17.6469 28.9551)">
<stop offset="0.314" stop-color="#FF9800"/>
<stop offset="0.662" stop-color="#FF6D00"/>
<stop offset="0.972" stop-color="#F44336"/>
</radialGradient>
<radialGradient id="paint1_radial_220_93" cx="0" cy="0" r="1" gradientUnits="userSpaceOnUse" gradientTransform="translate(16.5452 13.5146) rotate(90.5787) scale(18.4641 13.8956)">
<stop offset="0.214" stop-color="#FFF176"/>
<stop offset="0.328" stop-color="#FFF27D"/>
<stop offset="0.487" stop-color="#FFF48F"/>
<stop offset="0.672" stop-color="#FFF7AD"/>
<stop offset="0.793" stop-color="#FFF9C4"/>
<stop offset="0.822" stop-color="#FFF8BD" stop-opacity="0.804"/>
<stop offset="0.863" stop-color="#FFF6AB" stop-opacity="0.529"/>
<stop offset="0.91" stop-color="#FFF38D" stop-opacity="0.209"/>
<stop offset="0.941" stop-color="#FFF176" stop-opacity="0"/>
</radialGradient>
</defs>
</svg>
